<svg width="32" height="32" viewBox="0 0 32 32" fill="none" xmlns="http://www.w3.org/2000/svg">
<mask id="mask0_106_20" style="mask-type:alpha" maskUnits="userSpaceOnUse" x="0" y="0" width="32" height="32">
<rect width="32" height="32" fill="#D9D9D9"/>
</mask>
<g mask="url(#mask0_106_20)">
<path d="M25.9795 26.8717L17.6308 18.523C16.9641 19.0906 16.1975 19.5299 15.3308 19.841C14.4641 20.1521 13.5933 20.3077 12.7181 20.3077C10.5826 20.3077 8.77515 19.5684 7.29581 18.09C5.8167 16.6116 5.07715 14.8052 5.07715 12.671C5.07715 10.5366 5.81637 8.72866 7.29482 7.24733C8.77326 5.76622 10.5796 5.02567 12.7138 5.02567C14.8483 5.02567 16.6561 5.76522 18.1375 7.24433C19.6186 8.72367 20.3591 10.5311 20.3591 12.6667C20.3591 13.5931 20.195 14.4897 19.8668 15.3563C19.5386 16.223 19.1078 16.964 18.5745 17.5793L26.9231 25.9283L25.9795 26.8717ZM12.7181 18.9743C14.4873 18.9743 15.9808 18.3653 17.1988 17.1473C18.4168 15.9296 19.0258 14.436 19.0258 12.6667C19.0258 10.8973 18.4168 9.40378 17.1988 8.186C15.9808 6.968 14.4873 6.359 12.7181 6.359C10.9488 6.359 9.45526 6.968 8.23748 8.186C7.01948 9.40378 6.41048 10.8973 6.41048 12.6667C6.41048 14.436 7.01948 15.9296 8.23748 17.1473C9.45526 18.3653 10.9488 18.9743 12.7181 18.9743Z" fill="#1C1B1F"/>
</g>
</svg>
