<svg width="32" height="32" viewBox="0 0 32 32" fill="none" xmlns="http://www.w3.org/2000/svg">
<mask id="mask0_106_26" style="mask-type:alpha" maskUnits="userSpaceOnUse" x="0" y="0" width="32" height="32">
<rect width="32" height="32" fill="#D9D9D9"/>
</mask>
<g mask="url(#mask0_106_26)">
<path d="M16 28C14.3487 28 12.7931 27.6842 11.3333 27.0527C9.87356 26.4209 8.60222 25.5636 7.51933 24.4807C6.43644 23.3978 5.57911 22.1264 4.94733 20.6667C4.31578 19.2069 4 17.6513 4 16C4 14.3436 4.31578 12.7867 4.94733 11.3293C5.57911 9.87222 6.43644 8.60222 7.51933 7.51933C8.60222 6.43644 9.87356 5.57911 11.3333 4.94733C12.7931 4.31578 14.3487 4 16 4C17.6564 4 19.2133 4.31578 20.6707 4.94733C22.1278 5.57911 23.3978 6.43644 24.4807 7.51933C25.5636 8.60222 26.4209 9.87222 27.0527 11.3293C27.6842 12.7867 28 14.3436 28 16C28 17.6513 27.6842 19.2069 27.0527 20.6667C26.4209 22.1264 25.5636 23.3978 24.4807 24.4807C23.3978 25.5636 22.1278 26.4209 20.6707 27.0527C19.2133 27.6842 17.6564 28 16 28ZM16 26.677C16.7829 25.6719 17.4282 24.6847 17.936 23.7153C18.4436 22.7462 18.8563 21.6617 19.1743 20.4617H12.8257C13.1779 21.7299 13.5992 22.8487 14.0897 23.818C14.5803 24.7871 15.2171 25.7401 16 26.677ZM14.3027 26.477C13.6804 25.7437 13.1124 24.8372 12.5987 23.7577C12.0851 22.6781 11.7027 21.5794 11.4513 20.4617H6.33833C7.10256 22.1197 8.18589 23.4794 9.58833 24.541C10.991 25.6026 12.5624 26.2479 14.3027 26.477ZM17.6973 26.477C19.4376 26.2479 21.009 25.6026 22.4117 24.541C23.8141 23.4794 24.8974 22.1197 25.6617 20.4617H20.5487C20.212 21.5966 19.7868 22.7038 19.273 23.7833C18.7594 24.8629 18.2342 25.7608 17.6973 26.477ZM5.795 19.1283H11.1743C11.0734 18.5812 11.0021 18.0482 10.9603 17.5293C10.9183 17.0107 10.8973 16.5009 10.8973 16C10.8973 15.4991 10.9183 14.9893 10.9603 14.4707C11.0021 13.9518 11.0734 13.4188 11.1743 12.8717H5.795C5.64967 13.3332 5.53633 13.8362 5.455 14.3807C5.37389 14.9251 5.33333 15.4649 5.33333 16C5.33333 16.5351 5.37389 17.0749 5.455 17.6193C5.53633 18.1638 5.64967 18.6668 5.795 19.1283ZM12.5077 19.1283H19.4923C19.5932 18.5812 19.6646 18.0568 19.7063 17.555C19.7483 17.0534 19.7693 16.5351 19.7693 16C19.7693 15.4649 19.7483 14.9466 19.7063 14.445C19.6646 13.9432 19.5932 13.4188 19.4923 12.8717H12.5077C12.4068 13.4188 12.3354 13.9432 12.2937 14.445C12.2517 14.9466 12.2307 15.4649 12.2307 16C12.2307 16.5351 12.2517 17.0534 12.2937 17.555C12.3354 18.0568 12.4068 18.5812 12.5077 19.1283ZM20.8257 19.1283H26.205C26.3503 18.6668 26.4637 18.1638 26.545 17.6193C26.6261 17.0749 26.6667 16.5351 26.6667 16C26.6667 15.4649 26.6261 14.9251 26.545 14.3807C26.4637 13.8362 26.3503 13.3332 26.205 12.8717H20.8257C20.9266 13.4188 20.9979 13.9518 21.0397 14.4707C21.0817 14.9893 21.1027 15.4991 21.1027 16C21.1027 16.5009 21.0817 17.0107 21.0397 17.5293C20.9979 18.0482 20.9266 18.5812 20.8257 19.1283ZM20.5487 11.5383H25.6617C24.8803 9.84611 23.8098 8.48633 22.45 7.459C21.0902 6.43167 19.506 5.77778 17.6973 5.49733C18.3196 6.31622 18.879 7.25256 19.3757 8.30633C19.8723 9.36033 20.2633 10.4377 20.5487 11.5383ZM12.8257 11.5383H19.1743C18.8221 10.2872 18.3879 9.15567 17.8717 8.14367C17.3554 7.13167 16.7316 6.19144 16 5.323C15.2684 6.19144 14.6446 7.13167 14.1283 8.14367C13.6121 9.15567 13.1779 10.2872 12.8257 11.5383ZM6.33833 11.5383H11.4513C11.7367 10.4377 12.1277 9.36033 12.6243 8.30633C13.121 7.25256 13.6804 6.31622 14.3027 5.49733C12.4769 5.77778 10.8884 6.43589 9.53733 7.47167C8.186 8.50767 7.11967 9.86322 6.33833 11.5383Z" fill="#1C1B1F"/>
</g>
</svg>
