<svg width="32" height="32" viewBox="0 0 32 32" fill="none" xmlns="http://www.w3.org/2000/svg">
<mask id="mask0_106_23" style="mask-type:alpha" maskUnits="userSpaceOnUse" x="0" y="0" width="32" height="32">
<rect width="32" height="32" fill="#D9D9D9"/>
</mask>
<g mask="url(#mask0_106_23)">
<path d="M8.26167 23.3127C9.395 22.4973 10.5976 21.8526 11.8693 21.3783C13.1411 20.9039 14.518 20.6667 16 20.6667C17.482 20.6667 18.8589 20.9039 20.1307 21.3783C21.4024 21.8526 22.605 22.4973 23.7383 23.3127C24.6188 22.4016 25.3269 21.3256 25.8627 20.0847C26.3987 18.8436 26.6667 17.482 26.6667 16C26.6667 13.0444 25.6278 10.5278 23.55 8.45C21.4722 6.37222 18.9556 5.33333 16 5.33333C13.0444 5.33333 10.5278 6.37222 8.45 8.45C6.37222 10.5278 5.33333 13.0444 5.33333 16C5.33333 17.482 5.60133 18.8436 6.13733 20.0847C6.67311 21.3256 7.38122 22.4016 8.26167 23.3127ZM16.0007 16.6667C14.8771 16.6667 13.9294 16.281 13.1577 15.5097C12.3859 14.7383 12 13.7909 12 12.6673C12 11.5438 12.3857 10.5961 13.157 9.82433C13.9283 9.05256 14.8758 8.66667 15.9993 8.66667C17.1229 8.66667 18.0706 9.05233 18.8423 9.82367C19.6141 10.595 20 11.5424 20 12.666C20 13.7896 19.6143 14.7372 18.843 15.509C18.0717 16.2808 17.1242 16.6667 16.0007 16.6667ZM16 28C14.3264 28 12.7598 27.6884 11.3 27.0653C9.84022 26.4422 8.57011 25.5906 7.48967 24.5103C6.40944 23.4299 5.55778 22.1598 4.93467 20.7C4.31156 19.2402 4 17.6736 4 16C4 14.3264 4.31156 12.7598 4.93467 11.3C5.55778 9.84022 6.40944 8.57011 7.48967 7.48967C8.57011 6.40944 9.84022 5.55778 11.3 4.93467C12.7598 4.31155 14.3264 4 16 4C17.6736 4 19.2402 4.31155 20.7 4.93467C22.1598 5.55778 23.4299 6.40944 24.5103 7.48967C25.5906 8.57011 26.4422 9.84022 27.0653 11.3C27.6884 12.7598 28 14.3264 28 16C28 17.6736 27.6884 19.2402 27.0653 20.7C26.4422 22.1598 25.5906 23.4299 24.5103 24.5103C23.4299 25.5906 22.1598 26.4422 20.7 27.0653C19.2402 27.6884 17.6736 28 16 28ZM16 26.6667C17.2291 26.6667 18.4386 26.4517 19.6283 26.0217C20.8179 25.5919 21.846 25.0034 22.7127 24.2563C21.846 23.5606 20.8434 23.0106 19.705 22.6063C18.5666 22.2021 17.3316 22 16 22C14.6684 22 13.4291 22.1979 12.282 22.5937C11.1351 22.9894 10.1369 23.5437 9.28733 24.2563C10.154 25.0034 11.1821 25.5919 12.3717 26.0217C13.5614 26.4517 14.7709 26.6667 16 26.6667ZM16 15.3333C16.7487 15.3333 17.3803 15.0761 17.895 14.5617C18.4094 14.047 18.6667 13.4153 18.6667 12.6667C18.6667 11.918 18.4094 11.2863 17.895 10.7717C17.3803 10.2572 16.7487 10 16 10C15.2513 10 14.6197 10.2572 14.105 10.7717C13.5906 11.2863 13.3333 11.918 13.3333 12.6667C13.3333 13.4153 13.5906 14.047 14.105 14.5617C14.6197 15.0761 15.2513 15.3333 16 15.3333Z" fill="#1C1B1F"/>
</g>
</svg>
