<svg width="1151" height="186" viewBox="0 0 1151 186" fill="none" xmlns="http://www.w3.org/2000/svg">
<path d="M93.6001 64.08C93.1201 56.4 91.2801 49.12 88.0801 42.24C84.8801 35.36 80.2401 29.76 74.1601 25.44C68.0801 21.12 60.3201 18.96 50.8801 18.96C40.9601 18.96 33.3601 21.76 28.0801 27.36C22.8001 32.96 20.1601 39.52 20.1601 47.04C20.1601 53.76 22.0801 59.44 25.9201 64.08C29.7601 68.56 34.7201 72.56 40.8001 76.08C47.0401 79.44 53.6001 82.72 60.4801 85.92C66.5601 88.64 72.6401 91.6 78.7201 94.8C84.8001 97.84 90.3201 101.36 95.2801 105.36C100.24 109.36 104.16 114.16 107.04 119.76C110.08 125.2 111.6 131.76 111.6 139.44C111.6 148.24 109.36 156.08 104.88 162.96C100.56 169.84 94.2401 175.28 85.9201 179.28C77.6001 183.12 67.4401 185.04 55.4401 185.04C48.2401 185.04 40.8001 184 33.1201 181.92C25.4401 179.84 18.6401 176.8 12.7201 172.8L13.9201 183.12H1.44008L7.86185e-05 132H9.36008C10.1601 146.08 15.0401 156.8 24.0001 164.16C32.9601 171.36 43.7601 174.96 56.4001 174.96C62.6401 174.96 68.4001 173.84 73.6801 171.6C78.9601 169.2 83.1201 165.76 86.1601 161.28C89.3601 156.8 90.9601 151.36 90.9601 144.96C90.9601 137.76 89.0401 131.76 85.2001 126.96C81.3601 122.16 76.4001 118 70.3201 114.48C64.2401 110.96 57.7601 107.6 50.8801 104.4C44.8001 101.68 38.8001 98.8 32.8801 95.76C26.9601 92.72 21.5201 89.28 16.5601 85.44C11.7601 81.44 7.84008 76.72 4.80008 71.28C1.92008 65.84 0.480079 59.28 0.480079 51.6C0.480079 47.44 1.20008 42.96 2.64008 38.16C4.08008 33.36 6.56008 28.8 10.0801 24.48C13.7601 20 18.7201 16.4 24.9601 13.68C31.3601 10.8 39.4401 9.36001 49.2001 9.36001C55.2801 9.36001 62.0801 10.24 69.6001 12C77.2801 13.6 84.4001 16.8 90.9601 21.6L90.0001 11.28H102.24V64.08H93.6001ZM179.646 185.04C171.006 185.04 163.726 183.44 157.806 180.24C152.046 177.04 147.646 171.6 144.606 163.92C141.726 156.24 140.286 145.84 140.286 132.72V90C140.286 87.44 140.286 84.88 140.286 82.32C140.446 79.76 140.766 77.12 141.246 74.4C138.526 74.56 135.726 74.72 132.846 74.88C130.126 74.88 127.406 74.96 124.686 75.12V65.28H132.126C139.006 65.28 143.966 64.64 147.006 63.36C150.206 61.92 152.686 60.4 154.446 58.8H161.406V132C161.406 145.76 163.326 156.08 167.166 162.96C171.166 169.68 177.886 172.96 187.326 172.8C193.406 172.64 199.166 170.8 204.606 167.28C210.206 163.6 214.686 159.28 218.046 154.32V92.64C218.046 88.8 218.126 85.52 218.286 82.8C218.446 79.92 218.766 77.12 219.246 74.4C216.366 74.56 213.486 74.72 210.606 74.88C207.726 74.88 204.846 74.96 201.966 75.12V65.28H209.406C216.286 65.28 221.246 64.64 224.286 63.36C227.486 61.92 229.966 60.4 231.726 58.8H238.686L238.446 149.52C238.446 152.08 238.366 155.68 238.206 160.32C238.046 164.96 237.806 168.88 237.486 172.08C240.366 171.92 243.246 171.76 246.126 171.6C249.006 171.44 251.886 171.28 254.766 171.12V181.2H220.446C219.966 178.48 219.566 175.92 219.246 173.52C219.086 171.12 218.926 168.88 218.766 166.8C213.806 171.76 207.806 176.08 200.766 179.76C193.726 183.28 186.686 185.04 179.646 185.04ZM267.409 174C272.369 174 275.809 172.8 277.729 170.4C279.649 167.84 280.769 164.4 281.089 160.08C281.409 155.6 281.569 150.48 281.569 144.72V31.2C281.569 28.64 281.569 26.24 281.569 24C281.729 21.6 281.969 18.8 282.289 15.6C279.409 15.76 276.529 15.92 273.649 16.08C270.929 16.24 268.129 16.4 265.249 16.56V6.48C272.289 6.48 277.729 6.16 281.569 5.52C285.569 4.88 288.529 4.08 290.449 3.12C292.529 2.16 294.129 1.12 295.249 -9.53674e-07H302.209L302.449 155.76C302.449 158.96 302.369 161.84 302.209 164.4C302.049 166.8 301.729 169.36 301.249 172.08C303.809 171.92 306.289 171.84 308.689 171.84C311.249 171.68 313.809 171.52 316.369 171.36V181.2H267.409V174ZM372.908 181.92L341.468 89.76C340.348 86.4 339.308 83.52 338.348 81.12C337.548 78.72 336.908 76.64 336.428 74.88C335.948 73.12 335.548 71.6 335.228 70.32L322.508 71.04V61.2H373.388V68.4C366.188 68.56 362.188 71.04 361.388 75.84C360.748 80.48 361.708 86.64 364.268 94.32L375.308 127.92C376.588 131.76 377.868 135.68 379.148 139.68C380.428 143.52 381.708 147.36 382.988 151.2C384.428 146.88 385.868 142.56 387.308 138.24C388.908 133.76 390.428 129.28 391.868 124.8L413.228 61.2H423.068L447.308 131.04C448.588 134.56 449.868 138.16 451.148 141.84C452.428 145.52 453.708 149.2 454.988 152.88C456.268 149.36 457.468 145.92 458.588 142.56C459.868 139.04 461.068 135.52 462.188 132L478.028 86.4C479.148 83.2 480.268 80.16 481.388 77.28C482.508 74.4 483.788 72.08 485.228 70.32L471.308 71.04V61.2H513.068V68.4C508.908 68.56 505.468 69.12 502.748 70.08C500.188 71.04 498.028 72.32 496.268 73.92C494.508 75.52 493.068 77.44 491.948 79.68C490.828 81.92 489.788 84.48 488.828 87.36L454.268 181.92H444.668L421.868 116.4C420.908 113.52 419.948 110.72 418.988 108C418.028 105.12 417.068 102.32 416.108 99.6C415.148 96.72 414.188 93.92 413.228 91.2C412.268 93.92 411.308 96.72 410.348 99.6C409.388 102.32 408.428 105.12 407.468 108C406.508 110.72 405.548 113.52 404.588 116.4L382.028 181.92H372.908ZM598.455 174C603.415 174 606.855 172.8 608.775 170.4C610.695 167.84 611.815 164.4 612.135 160.08C612.455 155.6 612.615 150.48 612.615 144.72V111.12C612.615 97.36 610.375 87.04 605.895 80.16C601.575 73.28 594.695 69.92 585.255 70.08C579.335 70.24 573.495 71.68 567.735 74.4C562.135 77.12 557.575 80.64 554.055 84.96V155.76C554.055 158.96 553.975 161.84 553.815 164.4C553.655 166.8 553.335 169.36 552.855 172.08C555.415 171.92 557.895 171.84 560.295 171.84C562.855 171.68 565.415 171.52 567.975 171.36V181.2H519.015V174C523.975 174 527.415 172.8 529.335 170.4C531.255 167.84 532.375 164.4 532.695 160.08C533.175 155.6 533.415 150.48 533.415 144.72V31.2C533.415 28.64 533.415 26.24 533.415 24C533.575 21.6 533.815 18.8 534.135 15.6C531.255 15.76 528.375 15.92 525.495 16.08C522.775 16.24 519.975 16.4 517.095 16.56V6.48C524.135 6.48 529.575 6.16 533.415 5.52C537.415 4.88 540.375 4.08 542.295 3.12C544.375 2.16 545.975 1.12 547.095 -9.53674e-07H554.055V73.2C557.575 70.16 561.495 67.52 565.815 65.28C570.295 62.88 574.855 60.96 579.495 59.52C584.295 58.08 588.935 57.36 593.415 57.36C607.335 57.36 617.335 61.76 623.415 70.56C629.655 79.2 632.855 92.72 633.015 111.12L633.255 155.76C633.255 158.96 633.175 161.84 633.015 164.4C633.015 166.8 632.775 169.36 632.295 172.08C634.855 171.92 637.335 171.84 639.735 171.84C642.295 171.68 644.855 171.52 647.415 171.36V181.2H598.455V174ZM735.647 181.2C735.167 178.48 734.847 176.08 734.687 174C734.527 171.92 734.287 169.76 733.967 167.52C728.527 172.96 722.607 177.28 716.207 180.48C709.967 183.52 703.327 185.04 696.287 185.04C684.127 185.04 675.087 182.32 669.167 176.88C663.247 171.28 660.287 164.48 660.287 156.48C660.287 149.12 662.527 142.8 667.007 137.52C671.647 132.08 677.567 127.68 684.767 124.32C692.127 120.8 700.047 118.24 708.527 116.64C717.167 114.88 725.487 114.08 733.487 114.24V99.36C733.487 93.76 733.007 88.48 732.047 83.52C731.087 78.56 729.007 74.48 725.807 71.28C722.607 68.08 717.487 66.4 710.447 66.24C705.807 66.08 701.007 66.96 696.047 68.88C691.247 70.8 687.727 74.08 685.487 78.72C686.767 80 687.567 81.52 687.887 83.28C688.367 84.88 688.607 86.4 688.607 87.84C688.607 89.76 687.807 92 686.207 94.56C684.607 96.96 681.807 98.08 677.807 97.92C674.447 97.92 671.887 96.8 670.127 94.56C668.367 92.16 667.487 89.36 667.487 86.16C667.487 80.72 669.487 75.84 673.487 71.52C677.647 67.2 683.327 63.76 690.527 61.2C697.727 58.64 705.887 57.36 715.007 57.36C728.447 57.36 738.367 60.96 744.767 68.16C751.167 75.2 754.287 86.4 754.127 101.76C754.127 107.68 754.127 113.68 754.127 119.76C754.127 125.68 754.047 131.68 753.887 137.76C753.887 143.68 753.887 149.68 753.887 155.76C753.887 158.32 753.807 160.88 753.647 163.44C753.487 166 753.247 168.88 752.927 172.08C755.807 171.92 758.607 171.76 761.327 171.6C764.207 171.44 767.087 171.28 769.967 171.12V181.2H735.647ZM733.487 122.4C728.047 122.56 722.287 123.28 716.207 124.56C710.287 125.68 704.767 127.44 699.647 129.84C694.687 132.24 690.607 135.44 687.407 139.44C684.367 143.28 682.927 148 683.087 153.6C683.407 159.52 685.327 164 688.847 167.04C692.527 169.92 696.847 171.36 701.807 171.36C708.367 171.36 714.047 170.16 718.847 167.76C723.807 165.2 728.687 161.68 733.487 157.2C733.327 155.44 733.247 153.52 733.247 151.44C733.247 149.36 733.247 147.2 733.247 144.96C733.247 144.16 733.247 141.6 733.247 137.28C733.407 132.96 733.487 128 733.487 122.4ZM833.237 185.04C825.237 185.04 818.117 183.92 811.877 181.68C805.637 179.6 800.517 177.2 796.517 174.48L797.477 182.88H787.397L785.957 141.6H793.397C793.717 148.16 795.557 154.08 798.917 159.36C802.277 164.48 806.597 168.48 811.877 171.36C817.157 174.24 822.837 175.68 828.917 175.68C833.077 175.68 837.157 175.04 841.157 173.76C845.157 172.32 848.517 170.24 851.237 167.52C853.957 164.64 855.317 161.04 855.317 156.72C855.317 152.24 853.957 148.56 851.237 145.68C848.677 142.64 845.237 140 840.917 137.76C836.597 135.52 831.957 133.44 826.997 131.52C822.197 129.6 817.397 127.6 812.597 125.52C807.797 123.44 803.317 120.96 799.157 118.08C795.157 115.2 791.957 111.68 789.557 107.52C787.157 103.36 785.957 98.24 785.957 92.16C785.957 88.8 786.597 85.12 787.877 81.12C789.157 77.12 791.317 73.36 794.357 69.84C797.397 66.16 801.557 63.2 806.837 60.96C812.117 58.56 818.837 57.36 826.997 57.36C831.317 57.36 836.117 58.08 841.397 59.52C846.677 60.96 851.797 63.68 856.757 67.68L856.277 58.56H866.357V100.56H858.677C858.357 94.96 857.077 89.6 854.837 84.48C852.597 79.2 849.317 74.88 844.997 71.52C840.677 68 835.077 66.24 828.197 66.24C820.837 66.24 815.077 68.08 810.917 71.76C806.757 75.44 804.677 79.68 804.677 84.48C804.677 89.44 806.197 93.6 809.237 96.96C812.437 100.16 816.517 102.96 821.477 105.36C826.437 107.76 831.717 110.08 837.317 112.32C843.397 114.88 849.317 117.68 855.077 120.72C860.837 123.76 865.557 127.6 869.237 132.24C872.917 136.72 874.757 142.56 874.757 149.76C874.757 157.76 872.677 164.4 868.517 169.68C864.517 174.96 859.317 178.8 852.917 181.2C846.677 183.76 840.117 185.04 833.237 185.04ZM952.251 185.04C941.051 185.04 930.891 182.48 921.771 177.36C912.651 172.08 905.371 164.88 899.931 155.76C894.651 146.48 892.011 135.92 892.011 124.08C892.011 111.44 894.651 100.08 899.931 90C905.211 79.92 912.411 72 921.531 66.24C930.651 60.32 940.891 57.36 952.251 57.36C963.451 57.36 973.611 60.08 982.731 65.52C991.851 70.8 999.131 78 1004.57 87.12C1010.01 96.24 1012.73 106.64 1012.73 118.32C1012.73 130.64 1010.01 141.92 1004.57 152.16C999.291 162.24 992.091 170.24 982.971 176.16C973.851 182.08 963.611 185.04 952.251 185.04ZM954.171 175.44C962.651 175.44 969.371 173.04 974.331 168.24C979.291 163.44 982.811 157.2 984.891 149.52C987.131 141.84 988.251 133.76 988.251 125.28C988.251 118.08 987.531 111.04 986.091 104.16C984.811 97.12 982.731 90.8 979.851 85.2C976.971 79.44 973.211 74.88 968.571 71.52C964.091 68.16 958.651 66.48 952.251 66.48C943.931 66.48 937.131 68.88 931.851 73.68C926.571 78.48 922.651 84.72 920.091 92.4C917.691 100.08 916.491 108.32 916.491 117.12C916.491 127.04 917.851 136.48 920.571 145.44C923.291 154.24 927.451 161.44 933.051 167.04C938.651 172.64 945.691 175.44 954.171 175.44ZM1090.24 185.04C1079.04 185.04 1068.88 182.48 1059.76 177.36C1050.64 172.08 1043.36 164.88 1037.92 155.76C1032.64 146.48 1030 135.92 1030 124.08C1030 111.44 1032.64 100.08 1037.92 90C1043.2 79.92 1050.4 72 1059.52 66.24C1068.64 60.32 1078.88 57.36 1090.24 57.36C1101.44 57.36 1111.6 60.08 1120.72 65.52C1129.84 70.8 1137.12 78 1142.56 87.12C1148 96.24 1150.72 106.64 1150.72 118.32C1150.72 130.64 1148 141.92 1142.56 152.16C1137.28 162.24 1130.08 170.24 1120.96 176.16C1111.84 182.08 1101.6 185.04 1090.24 185.04ZM1092.16 175.44C1100.64 175.44 1107.36 173.04 1112.32 168.24C1117.28 163.44 1120.8 157.2 1122.88 149.52C1125.12 141.84 1126.24 133.76 1126.24 125.28C1126.24 118.08 1125.52 111.04 1124.08 104.16C1122.8 97.12 1120.72 90.8 1117.84 85.2C1114.96 79.44 1111.2 74.88 1106.56 71.52C1102.08 68.16 1096.64 66.48 1090.24 66.48C1081.92 66.48 1075.12 68.88 1069.84 73.68C1064.56 78.48 1060.64 84.72 1058.08 92.4C1055.68 100.08 1054.48 108.32 1054.48 117.12C1054.48 127.04 1055.84 136.48 1058.56 145.44C1061.28 154.24 1065.44 161.44 1071.04 167.04C1076.64 172.64 1083.68 175.44 1092.16 175.44Z" fill="#FA5100"/>
</svg>
